<?xml version="1.0" encoding="UTF-8" standalone="no"?>
<svg
   width="150"
   height="150"
   viewBox="0 0 18 18"
   version="1.1"
   id="svg1"
   xmlns="http://www.w3.org/2000/svg"
   xmlns:svg="http://www.w3.org/2000/svg">
  <defs
     id="defs1" />
  <g
     id="g13">
    <path
       style="baseline-shift:baseline;display:inline;overflow:visible;vector-effect:none;fill:#d25c5b;fill-opacity:1;stroke-linecap:round;stroke-linejoin:round;enable-background:accumulate;stop-color:#000000"
       d="M 9.039473,17.997827 A 0.997675,0.997675 0 0 1 8.041427,16.999781 v -6.083985 l -1.28125,1.287109 a 0.997675,0.997675 0 0 1 -1.410157,0.0039 0.997675,0.997675 0 0 1 -0.0039,-1.412109 L 8.332448,7.794697 a 0.997675,0.997675 0 0 1 0.0039,-0.002 0.997675,0.997675 0 0 1 0.701172,-0.291016 0.997675,0.997675 0 0 1 0.002,0 0.997675,0.997675 0 0 1 0.002,0.002 0.997675,0.997675 0 0 1 0.701171,0.289063 0.997675,0.997675 0 0 1 0,0.002 0.997675,0.997675 0 0 1 0.0039,0 l 2.986328,2.999999 a 0.997675,0.997675 0 0 1 -0.0039,1.412109 0.997675,0.997675 0 0 1 -1.410156,-0.0039 l -1.28125,-1.287108 v 6.083937 a 0.997675,0.997675 0 0 1 -0.998047,0.998046 z"
       id="path13" />
    <path
       style="baseline-shift:baseline;display:inline;overflow:visible;vector-effect:none;fill:#000000;fill-opacity:1;stroke-linecap:round;stroke-linejoin:round;enable-background:accumulate;stop-color:#000000"
       d="M 10.951583,0.07004 C 8.679388,-0.2842673 6.210185,0.7524593 4.904708,3.0915244 3.848613,2.9783805 2.845107,3.1240674 2.07463,3.6247275 1.109616,4.2517979 0.469498,5.2268585 0.178145,6.2829306 -0.113207,7.3390027 -0.063547,8.5021156 0.441817,9.5368365 0.947182,10.571559 1.937152,11.437805 3.297286,11.816133 A 0.997675,0.997675 0 0 0 4.525802,11.120822 0.997675,0.997675 0 0 0 3.832442,9.8923055 C 2.955032,9.6482485 2.499217,9.2032525 2.234786,8.6618365 1.970355,8.1204215 1.928024,7.4427463 2.101973,6.8122275 2.275923,6.1817087 2.659785,5.6252351 3.16252,5.2985556 3.624728,4.9982108 4.206076,4.8847408 4.97502,5.0524619 5.479303,5.1390169 5.952011,5.3622807 6.314864,5.7282431 a 0.997675,0.997675 0 0 0 1.412109,0.00586 0.997675,0.997675 0 0 0 0.0059,-1.4101563 C 7.46835,4.0571575 7.070781,4.0203276 6.752404,3.8298062 7.667544,2.3592278 9.167316,1.8103287 10.644982,2.0407437 c 1.695181,0.2643326 3.182851,1.4571895 3.355469,3.6386719 a 0.99777477,0.99777477 0 0 0 0.728515,0.8808594 c 0.756322,0.2104689 1.275324,0.8950092 1.275391,1.6894531 0,0.5457894 -0.175417,0.9946364 -0.431641,1.2890634 -0.256223,0.294426 -0.573457,0.4628905 -1.058593,0.4628905 a 0.997675,0.997675 0 0 0 -0.998047,0.998047 0.997675,0.997675 0 0 0 0.998047,0.998046 c 1.026723,0 1.952565,-0.447561 2.5625,-1.148438 C 17.686558,10.14846 18.000451,9.2230205 18.000451,8.2497281 18.00033,6.8300796 17.095085,5.6852368 15.869591,5.0524625 15.427697,2.2695952 13.302404,0.436602 10.951623,0.0700406 Z"
       id="path11" />
  </g>
</svg>
