<?xml version="1.0" encoding="UTF-8" standalone="no"?>
<svg
   width="150"
   height="150"
   viewBox="0 0 18 18"
   version="1.1"
   id="svg1"
   xmlns="http://www.w3.org/2000/svg"
   xmlns:svg="http://www.w3.org/2000/svg">
  <defs
     id="defs1" />
  <g
     id="g13"
     transform="translate(28.096114,-1.4846475)">
    <path
       style="baseline-shift:baseline;display:inline;overflow:visible;opacity:1;vector-effect:none;fill:#d25c5b;fill-opacity:1;stroke-linecap:round;stroke-linejoin:round;enable-background:accumulate;stop-color:#000000;stop-opacity:1"
       d="m -19.056641,8.9863281 a 0.997675,0.997675 0 0 0 -0.998046,0.9980469 v 6.083984 l -1.28125,-1.287109 a 0.997675,0.997675 0 0 0 -1.410157,-0.0039 0.997675,0.997675 0 0 0 -0.0039,1.412109 l 2.986328,3 a 0.997675,0.997675 0 0 0 0.0039,0.002 0.997675,0.997675 0 0 0 0.701172,0.291016 0.997675,0.997675 0 0 0 0.002,0 0.997675,0.997675 0 0 0 0.002,-0.002 0.997675,0.997675 0 0 0 0.701171,-0.289063 0.997675,0.997675 0 0 0 0,-0.002 0.997675,0.997675 0 0 0 0.0039,0 l 2.986328,-3 a 0.997675,0.997675 0 0 0 -0.0039,-1.412109 0.997675,0.997675 0 0 0 -1.410156,0.0039 l -1.28125,1.287109 V 9.984375 a 0.997675,0.997675 0 0 0 -0.998047,-0.9980469 z"
       id="path13" />
    <path
       style="baseline-shift:baseline;display:inline;overflow:visible;opacity:1;vector-effect:none;fill:currentColor;stroke-linecap:round;stroke-linejoin:round;enable-background:accumulate;stop-color:#000000;stop-opacity:1"
       d="m -17.144531,1.5546875 c -2.272195,-0.3543073 -4.741398,0.6824193 -6.046875,3.0214844 -1.056095,-0.1131439 -2.059601,0.032543 -2.830078,0.5332031 -0.965014,0.6270704 -1.605132,1.602131 -1.896485,2.6582031 -0.291352,1.0560721 -0.241692,2.219185 0.263672,3.2539059 0.505365,1.034722 1.495335,1.900968 2.855469,2.279297 a 0.997675,0.997675 0 0 0 1.228516,-0.695312 0.997675,0.997675 0 0 0 -0.69336,-1.228516 c -0.87741,-0.244057 -1.333225,-0.689053 -1.597656,-1.230469 -0.264431,-0.541415 -0.306762,-1.2190902 -0.132813,-1.849609 0.17395,-0.6305188 0.557812,-1.1869924 1.060547,-1.5136719 0.462208,-0.3003448 1.043556,-0.4138148 1.8125,-0.2460937 0.504283,0.086555 0.976991,0.3098188 1.339844,0.6757812 a 0.997675,0.997675 0 0 0 1.412109,0.00586 0.997675,0.997675 0 0 0 0.0059,-1.4101563 c -0.264523,-0.2667893 -0.662092,-0.3036192 -0.980469,-0.4941406 0.91514,-1.4705784 2.414912,-2.0194775 3.892578,-1.7890625 1.695181,0.2643326 3.182851,1.4571895 3.355469,3.6386719 a 0.99777477,0.99777477 0 0 0 0.728515,0.8808594 c 0.756322,0.2104689 1.275324,0.8950092 1.275391,1.6894531 0,0.5457894 -0.175417,0.9946364 -0.431641,1.2890634 -0.256223,0.294426 -0.573457,0.46289 -1.058593,0.46289 a 0.997675,0.997675 0 0 0 -0.998047,0.998047 0.997675,0.997675 0 0 0 0.998047,0.998047 c 1.026723,0 1.952565,-0.447561 2.5625,-1.148438 0.609935,-0.700877 0.923828,-1.626317 0.923828,-2.5996094 -1.21e-4,-1.4196485 -0.905366,-2.5644913 -2.13086,-3.1972656 -0.441894,-2.7828673 -2.567187,-4.6158605 -4.917968,-4.9824219 z"
       id="path11" />
  </g>
</svg>
