<?xml version="1.0" encoding="UTF-8" standalone="no"?>
<svg
   width="150"
   height="150"
   viewBox="0 0 17.999999 18"
   version="1.1"
   id="svg1"
   xml:space="preserve"
   xmlns="http://www.w3.org/2000/svg"
   xmlns:svg="http://www.w3.org/2000/svg"><defs
     id="defs1" /><g
     id="g3"><path
       fill="currentColor"
       d="M 6.436344,1.9091384 A 0.804543,0.804543 0 0 1 7.240887,2.7136813 V 11.230574 L 9.085704,9.3857566 a 0.804543,0.804543 0 0 1 1.137624,1.1376234 l -3.218172,3.218173 a 0.804543,0.804543 0 0 1 -1.137624,0 L 2.64936,10.52338 A 0.804543,0.804543 0 1 1 3.786984,9.3857566 L 5.631801,11.230574 V 2.7136813 A 0.804543,0.804543 0 0 1 6.436344,1.9091384 Z M 0.804543,13.977284 a 0.804543,0.804543 0 0 1 0.804543,0.804543 v 1.609086 h 9.654516 v -1.609086 a 0.8045435,0.8045435 0 1 1 1.609087,0 v 1.609086 a 1.609086,1.609086 0 0 1 -1.609087,1.609086 H 1.609086 A 1.609086,1.609086 0 0 1 0,16.390913 v -1.609086 a 0.804543,0.804543 0 0 1 0.804543,-0.804543 z"
       id="path1"
       style="stroke-width:0.804543" /><path
       fill="currentColor"
       fill-rule="evenodd"
       d="M 12.745018,8.577889 A 4.3755498,4.3755498 0 0 1 11.483012,8.083583 l 0.02276,-0.44495 C 11.536792,7.03185 11.068349,6.56525 10.463217,6.596075 L 9.9714795,6.621215 A 4.3799536,4.3799536 0 0 1 9.4478105,5.425447 l 0.386053,-0.34862 c 0.4510015,-0.406968 0.4499015,-1.068246 0,-1.474297 L 9.4223015,3.230973 a 4.3764672,4.3764672 0 0 1 0.476508,-1.176501 l 0.5643985,0.02881 c 0.606781,0.03101 1.073382,-0.437427 1.042558,-1.042558 l -0.029,-0.564215 A 4.3764672,4.3764672 0 0 1 12.652904,0 l 0.37174,0.411556 c 0.407336,0.451004 1.068428,0.449903 1.474481,0 l 0.348619,-0.386051 a 4.3799536,4.3799536 0 0 1 1.195584,0.523481 l -0.02514,0.491737 c -0.03102,0.606966 0.437426,1.073567 1.042556,1.042742 l 0.444949,-0.02275 a 4.3755498,4.3755498 0 0 1 0.494306,1.262004 l -0.310088,0.279814 c -0.450821,0.407335 -0.449538,1.068429 0,1.474479 l 0.286418,0.258346 A 4.378669,4.378669 0 0 1 17.433589,6.61516 L 17.060749,6.59608 C 16.453966,6.56507 15.987365,7.033507 16.018192,7.638638 l 0.01908,0.37284 A 4.378669,4.378669 0 0 1 14.757471,8.554225 L 14.499126,8.267989 c -0.407335,-0.451004 -1.068428,-0.449903 -1.474479,0 z m 0.955586,-2.464744 c 1.013383,0 1.834844,-0.821459 1.834844,-1.834843 0,-1.013383 -0.821461,-1.834843 -1.834844,-1.834843 -1.013384,0 -1.834843,0.82146 -1.834843,1.834843 0,1.013384 0.821459,1.834843 1.834843,1.834843"
       id="path1-5"
       style="fill:#d25c5b;fill-opacity:1;stroke-width:0.183485" /></g></svg>
