<?xml version="1.0" encoding="UTF-8" standalone="no"?>
<!-- Created with Inkscape (http://www.inkscape.org/) -->

<svg
   width="318.72769mm"
   height="86.77002mm"
   viewBox="0 0 318.72769 86.77004"
   version="1.1"
   id="svg8742"
   xmlns:xlink="http://www.w3.org/1999/xlink"
   xmlns="http://www.w3.org/2000/svg"
   xmlns:svg="http://www.w3.org/2000/svg">
  <defs
     id="defs8739">
    <linearGradient
       id="linearGradient88758">
      <stop
         style="stop-color:#d25c5b;stop-opacity:1;"
         offset="0"
         id="stop88754" />
      <stop
         style="stop-color:#d4685a;stop-opacity:1;"
         offset="0.34554836"
         id="stop88762" />
      <stop
         style="stop-color:#dc8f59;stop-opacity:1;"
         offset="1"
         id="stop88756" />
    </linearGradient>
    <linearGradient
       xlink:href="#linearGradient88758"
       id="linearGradient95278"
       gradientUnits="userSpaceOnUse"
       x1="1075.342"
       y1="180.94707"
       x2="1063.2428"
       y2="220.03273"
       gradientTransform="translate(125.538,161.28903)" />
  </defs>
  <g
     id="layer1"
     transform="translate(-1367.6744,-305.10166)">
    <g
       id="g102140"
       transform="translate(6.8653,-15.959489)">
      <path
         id="path102087"
         style="fill:#d25c5b;fill-opacity:1;stroke-width:0.749691;stroke-linejoin:round"
         d="m 1634.9745,350.43053 -11.7454,28.44355 h 5.0703 l 2.9501,-7.66642 1.6549,-0.64471 14.1954,8.31113 h 4.8933 l -11.687,-28.44355 z m 2.1636,6.73664 h 1.0088 l 5.6196,13.55659 -0.5686,0.56724 -9.5904,-5.60533 z" />
      <path
         id="path102089"
         style="fill:#2c2c2c;fill-opacity:1;stroke-width:0.749691;stroke-linejoin:round"
         d="m 1447.675,358.42448 c -0.2065,5.85165 4.692,7.34123 9.4317,8.11884 4.9197,0.80707 10.0004,0.74112 9.2255,4.86696 -0.3559,1.895 -2.8239,3.53559 -6.7844,3.44194 -3.9407,-0.0931 -4.5145,-0.67967 -7.6086,-2.57168 l -3.0613,3.20748 c 4.6428,2.84988 6.6256,3.42462 10.8372,3.38412 4.6504,-0.0447 11.008,-3.21749 11.012,-7.66168 0,-6.19617 -2.8073,-7.92803 -11.5113,-8.8527 -4.0956,-0.43509 -7.4006,-1.84942 -7.3422,-3.85041 0.093,-3.22284 5.282,-3.72231 7.2186,-3.74913 3.6986,-0.0512 5.3301,0.63835 6.9166,1.79086 l 3.0613,-3.20747 c -2.2748,-2.66198 -6.4371,-2.90095 -10.2356,-2.91868 -5.5453,-0.0255 -10.9626,2.44431 -11.1595,8.00155 z" />
      <path
         id="path102091"
         style="fill:#2c2c2c;fill-opacity:1;stroke-width:1.04385;stroke-linejoin:round"
         d="m 1489.4963,350.01823 a 14.428068,14.428068 0 0 0 -14.4292,14.42793 14.428068,14.428068 0 0 0 14.4292,14.42792 14.428068,14.428068 0 0 0 10.0511,-4.08906 l -3.0908,-3.17972 a 9.9016159,10.071164 0 0 1 -6.9603,2.91218 9.9016159,10.071164 0 0 1 -9.9015,-10.07132 9.9016159,10.071164 0 0 1 9.9015,-10.07134 9.9016159,10.071164 0 0 1 6.8961,2.84641 l 3.0613,-3.2075 a 14.428068,14.428068 0 0 0 -9.9574,-3.9955 z" />
      <path
         id="path102093"
         style="fill:#2c2c2c;fill-opacity:1;stroke-width:0.749691;stroke-linejoin:round"
         d="m 1504.994,350.43053 c 0,9.48119 0,18.96236 0,28.44355 1.4971,0 2.9939,0 4.4911,0 0,-9.48119 0,-18.96236 0,-28.44355 -1.4972,0 -2.994,0 -4.4911,0 z" />
      <path
         id="path102095"
         style="fill:#d25c5b;fill-opacity:1;stroke-width:0.749691;stroke-linejoin:round"
         d="m 1515.131,350.4305 v 4.49109 h 8.9822 v 23.95249 h 4.491 v -23.95249 h 8.9823 l 1.8379,-4.49109 z" />
      <path
         id="path102097"
         style="fill:#d25c5b;fill-opacity:1;stroke-width:1.04385;stroke-linejoin:round"
         d="m 1580.4624,350.01823 a 14.428068,14.428068 0 0 0 -14.4293,14.42793 14.428068,14.428068 0 0 0 14.4293,14.42792 14.428068,14.428068 0 0 0 10.0509,-4.08905 l -3.0907,-3.17973 a 9.9016159,10.071164 0 0 1 -6.9602,2.91219 9.9016159,10.071164 0 0 1 -9.9017,-10.07133 9.9016159,10.071164 0 0 1 9.9017,-10.07133 9.9016159,10.071164 0 0 1 6.8959,2.8464 l 3.0614,-3.2075 a 14.428068,14.428068 0 0 0 -9.9573,-3.9955 z" />
      <path
         id="path102099"
         style="fill:#d25c5b;fill-opacity:1;stroke-width:0.749691;stroke-linejoin:round"
         d="m 1596.59,350.42897 -1.7367,4.49116 3.0687,0.62719 v 23.32676 l 19.2459,-10e-4 1.7211,-4.49109 h -16.5452 v -7.48517 h 7.6035 l 1.892,-4.49109 h -9.4955 v -7.48515 h 14.8342 l 1.7085,-4.49108 z" />
      <path
         id="path102101"
         style="fill:#d25c5b;fill-opacity:1;stroke-width:0.749691;stroke-linejoin:round"
         d="m 1656.3331,350.43051 v 28.44357 h 4.4472 c 0.1386,-6.58166 0.2772,-13.16335 0.4181,-19.74501 4.7401,6.565 9.481,13.1294 14.2215,19.69384 l 4.1169,0.0509 v -28.44358 h -6.1111 l -1.7084,4.49109 h 3.3284 v 15.32555 c -4.8413,-6.60591 -9.6835,-13.21125 -14.5257,-19.81664 -1.3959,-1.2e-4 -2.7914,9e-5 -4.1869,2.6e-4 z" />
      <path
         id="path102103"
         style="fill:#d25c5b;fill-opacity:1;stroke-width:0.749691;stroke-linejoin:round"
         d="m 1547.752,350.43053 -11.7454,28.44355 h 5.0703 l 2.9501,-7.66642 1.6549,-0.64471 14.1954,8.31113 h 4.8933 l -11.687,-28.44355 z m 2.1636,6.73664 h 1.0088 l 5.6196,13.55659 -0.5686,0.56724 -9.5904,-5.60533 z" />
    </g>
    <g
       id="g102144"
       transform="translate(208.7733,10.56084)">
      <path
         style="fill:#2c2c2c;fill-opacity:1;stroke:none;stroke-width:0.264583px;stroke-linecap:butt;stroke-linejoin:miter;stroke-opacity:1"
         d="m 1169.7092,294.54082 c 0,0 -2.4303,4.49013 -2.2085,6.70643 0.6541,6.53716 4.4309,11.05586 11.4449,16.04602 2.7288,1.94139 4.0789,3.99292 4.7071,6.72488 -5.8378,2.80053 -12.6237,6.60428 -16.7659,12.1168 -4.4924,5.97862 -6.7248,10.02917 -7.5625,21.12204 -0.6403,-3.7283 -0.6027,-8.92644 0.4499,-13.20201 1.7083,-6.93918 6.8883,-14.08306 9.3001,-19.31688 1.3828,-3.00084 -1.878,-8.88001 -3.1856,-10.96055 -2.1716,-3.45547 -2.8054,-8.558 -1.5088,-12.6312 0.7875,-2.47383 5.3293,-6.60553 5.3293,-6.60553 z"
         id="path95274" />
      <path
         style="fill:url(#linearGradient95278);fill-opacity:1;stroke:none;stroke-width:0.264583px;stroke-linecap:butt;stroke-linejoin:miter;stroke-opacity:1"
         d="m 1181.8542,327.49246 c 12.1194,-4.25183 25.0161,6.97192 37.8581,7.16785 4.1486,0.0633 12.2948,-1.94136 12.2948,-1.94136 0,0 -2.8682,4.29291 -4.9273,5.755 -3.1869,2.26295 -7.0495,3.7423 -10.9232,4.26401 -10.7965,1.45409 -22.2856,-7.18313 -32.5041,-3.40654 -5.5472,2.05015 -10.3129,7.27574 -12.2014,12.88003 -1.8842,5.59153 -1.6739,12.91302 1.9136,17.59761 3.9141,5.11116 10.2009,8.02223 17.9919,7.02064 7.791,-1.00159 15.5875,-6.27737 19.8133,-8.70586 -3.3793,4.78548 -12.549,10.76387 -21.2822,12.65765 -6.9093,1.49826 -15.5404,-0.0139 -22.0076,-6.73097 -5.6181,-5.83522 -7.7339,-15.56331 -5.8929,-23.39001 2.3294,-9.90285 10.2674,-19.79979 19.8669,-23.16756 z"
         id="path95276" />
    </g>
  </g>
</svg>
